<svg width="50" height="59" viewBox="0 0 50 59" fill="none" xmlns="http://www.w3.org/2000/svg">
<path d="M40.8 27.92H10V0.72L15 4.8L20.04 0.68L25.2 4.96L30.32 0.639999L35.2 4.84L40.8 0V27.92ZM11.2 26.72H39.6V2.56L35.2 6.4L30.28 2.2L25.2 6.52L20.08 2.2L15 6.36L11.2 3.28V26.72Z" fill="#242E05"/>
<path d="M44 31.52H6.79999V26.72H44V31.52ZM7.99999 30.32H42.8V27.92H7.99999V30.32Z" fill="#242E05"/>
<path d="M44 46.84C44 47.64 43.32 48.32 42.52 48.32H34.68C33.88 48.32 33.2 47.64 33.2 46.84V44.6C33.2 43.8 33.88 43.12 34.68 43.12H42.52C43.32 43.12 44 43.8 44 44.6V46.84ZM42.8 44.6C42.8 44.44 42.68 44.32 42.52 44.32H34.68C34.52 44.32 34.4 44.44 34.4 44.6V46.84C34.4 47 34.52 47.12 34.68 47.12H42.52C42.68 47.12 42.8 47 42.8 46.84V44.6Z" fill="#242E05"/>
<path d="M31.84 14.48H28.6V15.72H31.84V14.48Z" fill="#242E05"/>
<path d="M16.08 14.48H27.84V15.72H16.08V14.48Z" fill="#242E05"/>
<path d="M34.48 12.44H16.08V13.68H34.48V12.44Z" fill="#242E05"/>
<path d="M35.64 10.32H33.56V11.56H35.64V10.32Z" fill="#242E05"/>
<path d="M32.64 10.32H16.08V11.56H32.64V10.32Z" fill="#242E05"/>
<path d="M31.84 18.64H28.6V19.88H31.84V18.64Z" fill="#242E05"/>
<path d="M16.08 19.92H27.84V18.64H16.08V19.92Z" fill="#242E05"/>
<path d="M34.48 20.72H16.08V21.96H34.48V20.72Z" fill="#242E05"/>
<path d="M35.64 22.8H33.56V24.04H35.64V22.8Z" fill="#242E05"/>
<path d="M32.64 22.8H16.08V24.04H32.64V22.8Z" fill="#242E05"/>
<path d="M50 58.32H0V29.28C0 23.88 4.68 19.12 10.72 18.2L10.84 19.4C5.36 20.2 1.2 24.48 1.2 29.28V57.12H48.8V29.28C48.8 24.6 45.32 20.6 40.24 19.52L40.44 18.36C46.12 19.56 50 24.04 50 29.28V58.32Z" fill="#242E05"/>
<path d="M44 36.72H8V37.92H44V36.72Z" fill="#242E05"/>
</svg>
