<svg width="50" height="48" viewBox="0 0 50 48" fill="none" xmlns="http://www.w3.org/2000/svg">
<path d="M23.6226 2.51306C17.34 2.51306 12.3139 7.53916 12.3139 13.8218C12.3139 20.1044 17.34 25.1305 23.6226 25.1305C29.9053 25.1305 34.9314 20.1044 34.9314 13.8218C34.9314 7.53916 29.9053 2.51306 23.6226 2.51306ZM25.3818 18.8479H21.8635V12.0626H19.3505L22.8687 8.54438H25.6331V18.8479H25.3818Z" fill="#242E05"/>
<path d="M49.5071 27.8949C49.0044 27.3923 48.2505 26.8897 46.7427 26.6384C45.2349 26.3871 37.1931 25.3819 36.1879 25.1306C34.6801 24.8793 32.9209 25.6332 30.6592 27.141C29.1514 28.1462 26.1357 29.9054 25.8844 29.9054C26.1357 30.1567 27.3922 30.1567 27.3922 30.1567H27.6435C30.4079 30.1567 32.4183 32.4184 32.4183 34.9315V35.4341C32.4183 38.1984 30.1566 40.2089 27.6435 40.2089H22.3661C17.8426 40.2089 13.5705 35.6854 13.5705 35.6854C13.5705 35.6854 18.8479 37.6958 22.3661 37.6958H27.3922C28.9001 37.6958 29.9053 36.4393 29.9053 35.1828C29.9053 33.9262 28.9001 32.6697 27.6435 32.6697C22.8687 32.1671 20.8583 30.1567 20.8583 30.1567C20.8583 30.1567 16.5861 26.8897 15.0783 26.1358C9.80089 23.1201 0 29.4028 0 29.4028L6.53393 43.7271C6.53393 43.7271 9.80089 41.7167 14.3244 43.4758C17.34 44.7323 19.0992 45.7376 22.1148 46.7428C26.387 48.2506 27.8948 47.9993 30.6592 45.9889C33.1722 44.2297 45.2349 34.6802 46.994 33.4236C49.5071 31.1619 50.7636 29.4028 49.5071 27.8949Z" fill="#242E05"/>
<path d="M36.1879 0C34.1774 0 32.167 0.753914 30.6592 2.01044C32.167 3.01566 33.6748 4.27218 34.6801 5.52871L35.434 4.77479H37.4444C37.4444 4.77479 37.4444 10.8061 37.4444 13.8218C37.4444 15.0783 37.1931 16.3348 36.9418 17.5913C41.4653 17.0887 44.9836 13.3192 44.9836 8.79567C44.9836 4.02088 40.9627 0 36.1879 0Z" fill="#242E05"/>
</svg>
