<svg width="50" height="46" viewBox="0 0 50 46" fill="none" xmlns="http://www.w3.org/2000/svg">
<path fill-rule="evenodd" clip-rule="evenodd" d="M4.54451 18.75C6.50391 8.08284 15.8497 0 27.0833 0C39.7399 0 50 10.2601 50 22.9167C50 35.5732 39.7399 45.8333 27.0833 45.8333C18.1818 45.8333 10.4656 40.7581 6.67063 33.3435H9.04299C12.6466 39.565 19.3763 43.75 27.0833 43.75C38.5893 43.75 47.9167 34.4226 47.9167 22.9167C47.9167 11.4107 38.5893 2.08333 27.0833 2.08333C17.0043 2.08333 8.59705 9.24066 6.66676 18.75H4.54451ZM26.0417 23.6451L36.8973 30.0444L37.9552 28.2497L28.125 22.405V8.39945H26.0417V23.6451ZM5.20833 25L10.4167 18.75H0L5.20833 25Z" fill="#242E05"/>
</svg>
