<svg width="30" height="37" viewBox="0 0 30 37" fill="none" xmlns="http://www.w3.org/2000/svg">
<path d="M9.23071 11.4615H11.5384V29.9231H9.23071V11.4615Z" fill="#242E05"/>
<path d="M13.8462 11.4615H16.1539V29.9231H13.8462V11.4615Z" fill="#242E05"/>
<path d="M18.4614 11.4615H20.7691V29.9231H18.4614V11.4615Z" fill="#242E05"/>
<path d="M0 4.53845H30V6.84614H0V4.53845Z" fill="#242E05"/>
<path d="M20.6925 5.6923H18.5386V3.38461C18.5386 2.6923 18.0002 2.15385 17.3079 2.15385H12.6925C12.0002 2.15385 11.4617 2.6923 11.4617 3.38461V5.6923H9.30786V3.38461C9.30786 1.53846 10.8463 0 12.6925 0H17.3079C19.154 0 20.6925 1.53846 20.6925 3.38461V5.6923Z" fill="#242E05"/>
<path d="M21.923 36.8461H8.07685C6.23069 36.8461 4.61531 35.3077 4.46147 33.4615L2.30762 5.7692L4.61531 5.61536L6.76916 33.3077C6.84608 34 7.46146 34.5384 8.07685 34.5384H21.923C22.6153 34.5384 23.2307 33.923 23.2307 33.3077L25.3845 5.61536L27.6922 5.7692L25.5384 33.4615C25.3845 35.3846 23.7692 36.8461 21.923 36.8461Z" fill="#242E05"/>
</svg>
