<svg width="31" height="30" viewBox="0 0 31 30" fill="none" xmlns="http://www.w3.org/2000/svg">
<path d="M9.3175 16.2627H10.4036V21.6578H11.4531V16.2627H12.538V15.3441H9.3175V16.2627Z" fill="#242E05"/>
<path d="M15.7621 11.7795C15.9047 11.7795 16.018 11.7418 16.1014 11.6644C16.1849 11.5846 16.2275 11.4762 16.2275 11.3397V8.54381C16.2275 8.43173 16.1849 8.34036 16.099 8.27274C16.0131 8.20269 15.9016 8.16797 15.7621 8.16797C15.6348 8.16797 15.5313 8.20269 15.4503 8.27274C15.3705 8.34036 15.3315 8.43233 15.3315 8.54381V11.3397C15.3315 11.4798 15.3686 11.5883 15.4436 11.6644C15.5173 11.7418 15.6245 11.7795 15.7621 11.7795Z" fill="#242E05"/>
<path d="M18.0762 16.9431C17.9313 16.9431 17.7881 16.9803 17.6468 17.054C17.5073 17.1277 17.3733 17.2373 17.2484 17.3786V15.3441H16.3073V21.6578H17.2484V21.3009C17.3696 21.4446 17.503 21.5494 17.6456 21.6176C17.7869 21.6852 17.9502 21.7187 18.1335 21.7187C18.4082 21.7187 18.6214 21.6316 18.7652 21.4556C18.9114 21.2783 18.9851 21.0261 18.9851 20.6966V18.1114C18.9851 17.7295 18.9077 17.4389 18.7506 17.2416C18.5958 17.043 18.3711 16.9431 18.0762 16.9431ZM18.0251 20.5681C18.0251 20.7179 17.9977 20.8239 17.9441 20.8891C17.8905 20.9555 17.807 20.9878 17.6931 20.9878C17.6145 20.9878 17.5408 20.9701 17.4683 20.9378C17.3971 20.9055 17.3221 20.8489 17.2484 20.7734V17.8714C17.3118 17.8062 17.3757 17.7581 17.4397 17.7289C17.5037 17.6966 17.5707 17.6826 17.6371 17.6826C17.7619 17.6826 17.8594 17.7228 17.9276 17.8026C17.9928 17.8848 18.0251 18.0036 18.0251 18.162V20.5681Z" fill="#242E05"/>
<path d="M14.6748 20.5395C14.5877 20.6394 14.4915 20.7216 14.3867 20.788C14.2819 20.8532 14.1942 20.8854 14.1272 20.8854C14.0389 20.8854 13.9762 20.8617 13.936 20.8117C13.8982 20.763 13.8775 20.6832 13.8775 20.5736V16.9998H12.9473V20.8952C12.9473 21.1736 13.0021 21.3782 13.1106 21.5196C13.2214 21.6578 13.3816 21.7267 13.5973 21.7267C13.7721 21.7267 13.953 21.6791 14.1388 21.5792C14.3246 21.4781 14.5031 21.3356 14.6754 21.1474V21.6578H15.6068V17.0004H14.6754V20.5395H14.6748Z" fill="#242E05"/>
<path d="M15.7219 0C7.43766 0 0.721924 6.71574 0.721924 15C0.721924 23.2855 7.43766 30 15.7219 30C24.0062 30 30.7219 23.2855 30.7219 15C30.7219 6.71574 24.0056 0 15.7219 0ZM18.1451 7.40832H19.1922V11.3427C19.1922 11.4652 19.2159 11.5523 19.2598 11.6059C19.3024 11.6607 19.3743 11.6893 19.473 11.6893C19.5491 11.6893 19.6466 11.6522 19.7654 11.5809C19.8817 11.5072 19.9901 11.4158 20.0876 11.3025V7.40832H21.1372V12.5397H20.0876V11.9732C19.8963 12.1815 19.6947 12.3417 19.4846 12.4502C19.2762 12.5586 19.074 12.6146 18.8766 12.6146C18.6342 12.6146 18.4521 12.5373 18.3284 12.3838C18.2072 12.2327 18.1451 12.0043 18.1451 11.696V7.40832ZM14.2527 8.58152C14.2527 8.18558 14.3928 7.86883 14.6748 7.63066C14.9581 7.39736 15.3376 7.27858 15.8133 7.27858C16.2476 7.27858 16.6021 7.40345 16.8805 7.65076C17.1564 7.89807 17.2947 8.21969 17.2947 8.61198V11.2617C17.2947 11.7021 17.1589 12.0457 16.889 12.2942C16.6155 12.5427 16.2421 12.6676 15.7658 12.6676C15.3077 12.6676 14.9404 12.5391 14.6651 12.2832C14.3904 12.0238 14.2521 11.6765 14.2521 11.241V8.58152H14.2527ZM11.3971 5.58457L12.1633 8.36345H12.2383L12.9674 5.58457H14.1668L12.7938 9.65482V12.5403H11.6133V9.78335L10.208 5.58457H11.3971ZM25.1264 20.224C25.1264 22.08 23.6212 23.5864 21.7652 23.5864H10.0844C8.2271 23.5864 6.72192 22.08 6.72192 20.224V17.5206C6.72192 15.6633 8.2271 14.1582 10.0844 14.1582H21.7652C23.6212 14.1582 25.1264 15.6633 25.1264 17.5206V20.224Z" fill="#242E05"/>
<path d="M20.8874 16.8846C20.4696 16.8846 20.1321 17.0107 19.8677 17.2666C19.6046 17.52 19.4718 17.8507 19.4718 18.2515V20.3458C19.4718 20.7953 19.593 21.1474 19.8324 21.402C20.0718 21.6578 20.4001 21.7864 20.8174 21.7864C21.2816 21.7864 21.63 21.6664 21.8621 21.4258C22.0978 21.1833 22.2129 20.8239 22.2129 20.3458V20.1064H21.2554V20.3184C21.2554 20.5931 21.2231 20.7703 21.1628 20.8501C21.1025 20.9299 20.994 20.9701 20.8393 20.9701C20.6907 20.9701 20.5859 20.9238 20.5238 20.83C20.4629 20.7338 20.4336 20.5644 20.4336 20.3184V19.4418H22.2135V18.2522C22.2135 17.8117 22.1002 17.4743 21.8712 17.2373C21.6416 17.0022 21.3132 16.8846 20.8874 16.8846ZM21.2554 18.7169H20.433V18.2461C20.433 18.0511 20.4629 17.9092 20.528 17.8282C20.5932 17.7411 20.6992 17.6997 20.8478 17.6997C20.9879 17.6997 21.0939 17.7411 21.1573 17.8282C21.2212 17.9092 21.2547 18.0505 21.2547 18.2461V18.7169H21.2554Z" fill="#242E05"/>
</svg>
